<svg xmlns="http://www.w3.org/2000/svg" height="800" width="1200" viewBox="-28.5012 -7 247.0104 42"><path d="M16.212 2.828c1.3627.3173 2.6133.882 3.752 1.694 1.1387.812 2.1047 1.806 2.898 2.982.7933 1.176 1.3487 2.4547 1.666 3.836.168.728.49 1.3347.966 1.82.476.4853 1.0687.7653 1.778.84-.7093.056-1.302.322-1.778.798-.476.476-.798 1.0873-.966 1.834-.3173 1.4-.8727 2.688-1.666 3.864-.7933 1.176-1.7593 2.17-2.898 2.982-1.1387.812-2.3893 1.3767-3.752 1.694-.728.168-1.316.4947-1.764.98-.4853.504-.756 1.12-.812 1.848-.0747-.728-.3453-1.344-.812-1.848-.4667-.4853-1.0547-.812-1.764-.98-2.0533-.504-3.8313-1.526-5.334-3.066-1.5027-1.54-2.4873-3.3647-2.954-5.474-.168-.728-.4947-1.33-.98-1.806S.7093 14.0747 0 14c.7093-.0747 1.3067-.35 1.792-.826.4853-.476.812-1.0873.98-1.834.3173-1.3813.868-2.66 1.652-3.836.784-1.176 1.7453-2.17 2.884-2.982 1.1387-.812 2.3893-1.3767 3.752-1.694.7093-.168 1.2973-.4993 1.764-.994.4667-.4947.7373-1.106.812-1.834.056.728.3173 1.3393.784 1.834.4667.4947 1.064.826 1.792.994zm-2.576 15.764c.8027 0 1.5493-.2053 2.24-.616.6907-.4107 1.2367-.966 1.638-1.666s.602-1.47.602-2.31c0-.84-.2007-1.61-.602-2.31s-.9473-1.2553-1.638-1.666c-.6907-.4107-1.4373-.616-2.24-.616-.8027 0-1.5493.2053-2.24.616-.6907.4107-1.2367.966-1.638 1.666s-.602 1.47-.602 2.31c0 .84.2007 1.61.602 2.31s.9473 1.2553 1.638 1.666c.6907.4107 1.4373.616 2.24.616zM7.728 7.112h4.788v-2.24c-1.8293.2613-3.4253 1.008-4.788 2.24zm7.028 0h4.788c-1.3627-1.232-2.9587-1.9787-4.788-2.24zm-1.12 16.072c1.288 0 2.4173-.2053 3.388-.616.84-.3547 1.68-.9147 2.52-1.68H7.728a8.924 8.924 0 002.716 1.694c1.008.4013 2.072.602 3.192.602zm0-6.888c-.616 0-1.1433-.224-1.582-.672-.4387-.448-.658-.9893-.658-1.624 0-.6347.2193-1.176.658-1.624.4387-.448.966-.672 1.582-.672.616 0 1.1433.224 1.582.672.4387.448.658.9893.658 1.624 0 .6347-.2193 1.176-.658 1.624-.4387.448-.966.672-1.582.672zm-4.984 2.296c-.56-.616-.9847-1.316-1.274-2.1S6.944 14.8773 6.944 14s.1493-1.7127.448-2.506c.2987-.7933.7187-1.4887 1.26-2.086H5.908c-.8027 1.3813-1.204 2.9073-1.204 4.578s.4013 3.206 1.204 4.606zm12.74 0c.784-1.4187 1.176-2.954 1.176-4.606 0-1.652-.392-3.178-1.176-4.578H18.62a6.9332 6.9332 0 011.26 2.072c.3173.8027.476 1.638.476 2.506 0 .868-.1587 1.7033-.476 2.506-.2987.7653-.7187 1.4653-1.26 2.1zm8.372-12.348h3.36v6.02h6.188v-6.02h3.36v15.68h-3.36v-6.748h-6.188v6.748h-3.36zm15.596 4.34h3.052v11.34H45.36zm3.052-1.764H45.36V6.244h3.052zm6.244 1.764h2.212v2.072h-2.212v5.628c0 .5227.084.8727.252 1.05.168.1773.5133.266 1.036.266.3173 0 .6253-.028.924-.084v2.436c-.448.0747-1.036.112-1.764.112-1.0827 0-1.904-.168-2.464-.504-.6907-.4293-1.036-1.1667-1.036-2.212v-6.692h-1.82v-2.072h1.82V7.168h3.052zm10.556 5.796c-.168.1493-.4293.2707-.784.364-.2053.056-.5507.112-1.036.168l-.7.112c-.56.112-.98.2707-1.26.476-.3547.28-.532.6813-.532 1.204 0 .9707.616 1.456 1.848 1.456 1.0267 0 1.736-.3547 2.128-1.064.224-.392.336-.9147.336-1.568zm-7-2.324c.0747-1.344.6533-2.3427 1.736-2.996.8773-.5227 2.0253-.784 3.444-.784 3.248 0 4.872 1.0733 4.872 3.22v5.908c0 1.288.1213 2.128.364 2.52h-3.08l-.028-.112c-.112-.448-.168-.7747-.168-.98-.4667.4853-1.0453.8493-1.736 1.092-.5973.2053-1.26.308-1.988.308-1.12 0-2.016-.2707-2.688-.812-.728-.5973-1.092-1.456-1.092-2.576 0-1.1573.392-2.0253 1.176-2.604.5787-.4107 1.4467-.7 2.604-.868l.98-.14c.9147-.0933 1.5307-.2053 1.848-.336.504-.2053.756-.5413.756-1.008 0-.616-.196-1.0453-.588-1.288-.28-.168-.7373-.252-1.372-.252-1.232 0-1.904.5693-2.016 1.708zm19.908.504c-.0933-.6347-.3313-1.1153-.714-1.442s-.8913-.49-1.526-.49c-.8773 0-1.5493.4013-2.016 1.204-.3733.672-.56 1.4887-.56 2.45 0 .9613.1867 1.7687.56 2.422.4293.784 1.0827 1.176 1.96 1.176.6907 0 1.2413-.2053 1.652-.616.4107-.4107.6627-.9707.756-1.68h2.94c-.1867 1.4747-.7513 2.618-1.694 3.43-.9427.812-2.1513 1.218-3.626 1.218-1.1013 0-2.0767-.2473-2.926-.742-.8493-.4947-1.5073-1.1807-1.974-2.058-.4667-.8773-.7-1.8853-.7-3.024 0-1.176.224-2.2307.672-3.164.448-.9333 1.092-1.652 1.932-2.156.8587-.5413 1.876-.812 3.052-.812.896 0 1.7173.1587 2.464.476.784.3173 1.4093.7933 1.876 1.428.5227.6533.812 1.4467.868 2.38zm4.76-8.316h3.024v5.908h.084c.3547-.5973.84-1.064 1.456-1.4.5787-.3173 1.1667-.476 1.764-.476 1.512 0 2.5853.4293 3.22 1.288.5413.728.812 1.8573.812 3.388v6.972h-3.024v-6.412c0-.952-.154-1.6567-.462-2.114-.308-.4573-.8073-.686-1.498-.686-.8213 0-1.4187.2567-1.792.77-.3733.5133-.56 1.3487-.56 2.506v5.936H82.88zm12.768 4.34h3.024v11.34h-3.024zm3.024-1.764h-3.024V6.244h3.024zm11.592 4.508h3.668c.7653 0 1.344-.1773 1.736-.532.392-.3547.588-.9147.588-1.68s-.196-1.3207-.588-1.666c-.392-.3453-.9707-.518-1.736-.518h-3.668zm-3.36-7.084h8.232c.896 0 1.6893.196 2.38.588.6533.392 1.1667.9147 1.54 1.568.3733.6533.56 1.3813.56 2.184 0 1.9413-.8027 3.248-2.408 3.92v.056c1.3253.336 2.0627 1.5587 2.212 3.668l.028.42c.0373.7653.084 1.344.14 1.736.0933.6907.252 1.204.476 1.54h-3.36c-.1307-.2987-.224-.6813-.28-1.148-.056-.28-.1027-.7187-.14-1.316-.0373-.5973-.0747-1.0267-.112-1.288-.112-.84-.3593-1.4467-.742-1.82-.3827-.3733-.9847-.56-1.806-.56h-3.36v6.132h-3.36zm22.008 10.136c-.168.1493-.4293.2707-.784.364-.2053.056-.5507.112-1.036.168l-.7.112c-.56.112-.98.2707-1.26.476-.3547.28-.532.6813-.532 1.204 0 .9707.616 1.456 1.848 1.456 1.0267 0 1.736-.3547 2.128-1.064.224-.392.336-.9147.336-1.568zm-7.028-2.324c.0747-1.344.6533-2.3427 1.736-2.996.8773-.5227 2.0347-.784 3.472-.784 3.248 0 4.872 1.0733 4.872 3.22v5.908c0 1.288.1213 2.128.364 2.52h-3.08c-.1307-.392-.196-.756-.196-1.092-.4667.4853-1.0453.8493-1.736 1.092-.5973.2053-1.26.308-1.988.308-1.12 0-2.016-.2707-2.688-.812-.728-.5973-1.092-1.456-1.092-2.576 0-1.1573.392-2.0253 1.176-2.604.5787-.4107 1.4467-.7 2.604-.868l.98-.14c.9147-.0933 1.5307-.2053 1.848-.336.504-.2053.756-.5413.756-1.008 0-.616-.196-1.0453-.588-1.288-.28-.168-.7327-.252-1.358-.252-.6253 0-1.106.1353-1.442.406-.336.2707-.532.7047-.588 1.302zm12.488-3.472h3.052v11.34h-3.052zm3.052-1.764h-3.052V6.244h3.052zm2.464-2.576h3.052v15.68h-3.052zm13.552 10.472c0 .9893.3453 1.736 1.036 2.24.5787.448 1.3627.672 2.352.672.7653 0 1.4093-.1307 1.932-.392.6907-.336 1.036-.8587 1.036-1.568 0-.448-.168-.8307-.504-1.148-.2987-.2613-.7373-.4947-1.316-.7-.3547-.1307-.952-.2987-1.792-.504l-.924-.252c-.9147-.2427-1.6427-.504-2.184-.784-.7467-.3547-1.3067-.8027-1.68-1.344-.448-.6347-.672-1.4093-.672-2.324 0-1.008.2893-1.8853.868-2.632.5227-.6907 1.232-1.2227 2.128-1.596.84-.336 1.7453-.504 2.716-.504 1.7547 0 3.1733.392 4.256 1.176 1.232.8773 1.848 2.1653 1.848 3.864h-3.248c-.056-.8773-.3733-1.512-.952-1.904-.4853-.3173-1.176-.476-2.072-.476-.616 0-1.1293.1307-1.54.392-.504.336-.756.8027-.756 1.4 0 .392.1073.6953.322.91s.6393.434 1.274.658c.4293.1307 1.344.3827 2.744.756l.364.084c.672.168 1.232.3547 1.68.56.784.3547 1.4.8027 1.848 1.344.5787.7093.868 1.5867.868 2.632 0 .9707-.2473 1.8387-.742 2.604-.4947.7653-1.1993 1.3533-2.114 1.764-.9893.448-2.156.672-3.5.672-1.176 0-2.24-.196-3.192-.588-1.0267-.4293-1.8293-1.0453-2.408-1.848-.616-.8773-.924-1.932-.924-3.164zm14.98-7.56h-4.564V6.244h12.488v2.912h-4.564v12.768h-3.36zm11.984 7.56c0 .9893.336 1.736 1.008 2.24.5973.448 1.3813.672 2.352.672.7653 0 1.4093-.1307 1.932-.392.7093-.336 1.064-.8587 1.064-1.568 0-.448-.168-.8307-.504-1.148-.2987-.2613-.7373-.4947-1.316-.7-.3547-.1307-.9427-.2987-1.764-.504l-.952-.252c-.9147-.2427-1.6427-.504-2.184-.784-.7467-.3547-1.316-.8027-1.708-1.344-.448-.6347-.672-1.4093-.672-2.324 0-1.008.2893-1.8853.868-2.632.5227-.6907 1.232-1.2227 2.128-1.596.84-.336 1.7453-.504 2.716-.504 1.7547 0 3.1733.392 4.256 1.176 1.232.8773 1.848 2.1653 1.848 3.864h-3.248c-.056-.8773-.3733-1.512-.952-1.904-.4667-.3173-1.148-.476-2.044-.476-.6347 0-1.1573.1307-1.568.392-.504.336-.756.8027-.756 1.4 0 .392.1073.6953.322.91s.6393.434 1.274.658c.4293.1307 1.344.3827 2.744.756l.336.084c.6907.168 1.2507.3453 1.68.532.8027.3547 1.428.812 1.876 1.372.5787.7093.868 1.5867.868 2.632 0 .9707-.2473 1.8387-.742 2.604-.4947.7653-1.1993 1.3533-2.114 1.764-.9893.448-2.156.672-3.5.672-1.176 0-2.24-.196-3.192-.588-1.0267-.4293-1.8293-1.0453-2.408-1.848-.616-.8773-.9147-1.932-.896-3.164z"/></svg>